<svg width="40" height="40" viewBox="0 0 40 40" fill="none" xmlns="http://www.w3.org/2000/svg">
    <path fill-rule="evenodd" clip-rule="evenodd"
        d="M20.997 11.2535C20.997 11.767 20.6892 12.2084 20.2485 12.4021L23.4152 18.0754L25.6819 15.09C25.4188 14.9093 25.2461 14.6058 25.2461 14.2618C25.2461 13.708 25.6937 13.259 26.2459 13.259C26.798 13.259 27.2456 13.708 27.2456 14.2618C27.2456 14.6851 26.9841 15.0472 26.6143 15.1943L28.3477 18.4545L29.6611 17.1422C29.5592 17.0504 29.495 16.9172 29.495 16.769C29.495 16.4921 29.7188 16.2676 29.9949 16.2676C30.271 16.2676 30.4948 16.4921 30.4948 16.769C30.4948 17.0459 30.271 17.2704 29.9949 17.2704C29.987 17.2704 29.9791 17.2702 29.9712 17.2698L27.083 24.7728V26.3062H19.7473V26.3066H12.4117V24.7732L9.52352 17.2703C9.51569 17.2707 9.5078 17.2708 9.49988 17.2708C9.2238 17.2708 9 17.0464 9 16.7694C9 16.4925 9.2238 16.2681 9.49988 16.2681C9.77596 16.2681 9.99976 16.4925 9.99976 16.7694C9.99976 16.9177 9.93563 17.0509 9.83367 17.1427L11.147 18.4549L12.8803 15.195C12.5105 15.0478 12.249 14.6858 12.249 14.2625C12.249 13.7086 12.6966 13.2597 13.2487 13.2597C13.8009 13.2597 14.2485 13.7086 14.2485 14.2625C14.2485 14.6064 14.0759 14.9098 13.8129 15.0905L16.0795 18.0758L19.2464 12.4022C18.8056 12.2085 18.4976 11.7671 18.4976 11.2535C18.4976 10.5612 19.0571 10 19.7473 10C20.4375 10 20.997 10.5612 20.997 11.2535ZM19.7473 12.507V16.6616L19.7474 12.507H19.7473Z"
        fill="#FFB800" />
</svg>
