<svg width="40" height="40" viewBox="0 0 40 40" fill="none" xmlns="http://www.w3.org/2000/svg">
    <defs>
        <linearGradient id="paint0_linear_57_363" x1="24.118" y1="17.8571" x2="13.2535" y2="14.9772"
            gradientUnits="userSpaceOnUse">
            <stop stop-color="#FF5C00" />
            <stop offset="1" stop-color="#FF7A00" />
        </linearGradient>
        <linearGradient id="paint1_linear_57_363" x1="25.2547" y1="31.2857" x2="11.2724"
            y2="28.5059" gradientUnits="userSpaceOnUse">
            <stop stop-color="#FF5C00" />
            <stop offset="1" stop-color="#FF7A00" />
        </linearGradient>
    </defs>
    <path
        d="M13.7143 14.8571C13.7143 11.6223 16.3366 9 19.5714 9C22.8062 9 25.4286 11.6223 25.4286 14.8571V17.2857H13.7143V14.8571Z"
        stroke="url(#paint0_linear_57_363)" stroke-width="2" />
    <path fill-rule="evenodd" clip-rule="evenodd"
        d="M19.5714 14.8571C14.8376 14.8571 11 18.6947 11 23.4286C11 28.1624 14.8376 32 19.5714 32C24.3053 32 28.1429 28.1624 28.1429 23.4286C28.1429 18.6947 24.3053 14.8571 19.5714 14.8571ZM19.5714 19.5325C17.4197 19.5325 15.6753 21.2768 15.6753 23.4286C15.6753 25.5803 17.4197 27.3247 19.5714 27.3247C21.7232 27.3247 23.4675 25.5803 23.4675 23.4286C23.4675 21.2768 21.7232 19.5325 19.5714 19.5325Z"
        fill="url(#paint1_linear_57_363)" />
</svg>
