<svg width="40" height="40" viewBox="0 0 40 40" fill="none" xmlns="http://www.w3.org/2000/svg">
    <defs>
        <linearGradient id="paint0_linear_57_336" x1="27.9565" y1="31" x2="8.38134" y2="27.1083"
            gradientUnits="userSpaceOnUse">
            <stop stop-color="#FF5C00" />
            <stop offset="1" stop-color="#FF7A00" />
        </linearGradient>
        <linearGradient id="paint1_linear_57_336" x1="24.1467" y1="30.9583" x2="14.891" y2="30.1487"
            gradientUnits="userSpaceOnUse">
            <stop stop-color="#FF5C00" />
            <stop offset="1" stop-color="#FF7A00" />
        </linearGradient>
    </defs>
    <rect x="9" y="9" width="22" height="22" rx="11" stroke="url(#paint0_linear_57_336)"
        stroke-width="2" />
    <path
        d="M18.5938 22.5762H20.6152V22.0195C20.6152 21.0332 20.9766 20.5059 22.2363 19.7637C23.5254 18.9922 24.2871 17.9277 24.2871 16.4238V16.4141C24.2871 14.3145 22.5391 12.791 19.9707 12.791C17.1387 12.791 15.6738 14.4707 15.5469 16.5703L15.5371 16.6875H17.5586L17.5684 16.5996C17.6758 15.4082 18.5156 14.5879 19.8633 14.5879C21.1914 14.5879 22.0703 15.3887 22.0703 16.502V16.5117C22.0703 17.5078 21.6504 18.0742 20.4688 18.7871C19.1309 19.5879 18.5547 20.4668 18.584 21.7949L18.5938 22.5762ZM19.6191 27.1074C20.3516 27.1074 20.9082 26.5508 20.9082 25.8379C20.9082 25.125 20.3516 24.5781 19.6191 24.5781C18.9062 24.5781 18.3398 25.125 18.3398 25.8379C18.3398 26.5508 18.9062 27.1074 19.6191 27.1074Z"
        fill="url(#paint1_linear_57_336)" />
</svg>
