<svg width="40" height="40" viewBox="0 0 40 40" fill="none" xmlns="http://www.w3.org/2000/svg">
    <defs>
        <linearGradient id="paint0_linear_585_629" x1="25.3043" y1="31" x2="11.9726" y2="29.233"
            gradientUnits="userSpaceOnUse">
            <stop stop-color="#FF5C00" />
            <stop offset="1" stop-color="#FF7A00" />
        </linearGradient>
        <linearGradient id="paint1_linear_585_629" x1="25.3043" y1="31" x2="11.9726" y2="29.233"
            gradientUnits="userSpaceOnUse">
            <stop stop-color="#FF5C00" />
            <stop offset="1" stop-color="#FF7A00" />
        </linearGradient>
    </defs>
    <rect x="13" y="9" width="14" height="22" rx="2" fill="url(#paint0_linear_585_629)"
        stroke="url(#paint1_linear_585_629)" stroke-width="2" />
    <path fill-rule="evenodd" clip-rule="evenodd"
        d="M20 14.4401H20L25.805 20.2451C26.065 20.505 26.065 20.9265 25.805 21.1864C25.5451 21.4464 25.1236 21.4464 24.8637 21.1864L24.4917 20.8145V26.4996H15.4471V20.8757L15.1363 21.1865C14.8764 21.4464 14.4549 21.4464 14.195 21.1865C13.935 20.9265 13.935 20.505 14.195 20.2451L15.8778 18.5623V15.3015H17.1699V17.2702L19.0587 15.3814L20 14.4401ZM24.147 20.4698L24.1471 20.4698H15.8529L15.853 20.4698H24.147Z"
        fill="#F5F5F5" />
</svg>
