<svg width="40" height="40" viewBox="0 0 40 40" fill="none" xmlns="http://www.w3.org/2000/svg">
    <defs>
        <linearGradient id="paint0_linear_585_628" x1="21.3043" y1="31.2917" x2="8.19732"
            y2="28.8392" gradientUnits="userSpaceOnUse">
            <stop stop-color="#FF5C00" />
            <stop offset="1" stop-color="#FF7A00" />
        </linearGradient>
        <linearGradient id="paint1_linear_585_628" x1="29.3043" y1="31" x2="15.9726" y2="29.233"
            gradientUnits="userSpaceOnUse">
            <stop stop-color="#FF5C00" />
            <stop offset="1" stop-color="#FF7A00" />
        </linearGradient>
    </defs>
    <rect x="9" y="16" width="14" height="15" rx="2" stroke="url(#paint0_linear_585_628)"
        stroke-width="2" />
    <path fill-rule="evenodd" clip-rule="evenodd"
        d="M19 10H29C29.5523 10 30 10.4477 30 11V29C30 29.5523 29.5523 30 29 30H23.8293C23.4175 31.1652 22.3062 32 21 32H29C30.6569 32 32 30.6569 32 29V11C32 9.34315 30.6569 8 29 8H19C17.3431 8 16 9.34315 16 11V15H18V11C18 10.4477 18.4477 10 19 10Z"
        fill="url(#paint1_linear_585_628)" />
</svg>
