<svg width="137" height="140" viewBox="0 0 137 140" fill="none" xmlns="http://www.w3.org/2000/svg">
    <path
        d="M131.842 62.6859C138.477 65.0053 138.477 74.9947 131.842 77.3135L84.7706 93.7677C83.931 94.0612 83.1491 94.516 82.4635 95.1094L43.6169 128.729C42.4604 129.73 41.0418 130.326 39.555 130.436C38.0681 130.546 36.5855 130.165 35.31 129.344C34.0345 128.524 33.0283 127.304 32.4289 125.852C31.8295 124.4 31.6662 122.786 31.9614 121.231L41.4024 71.5254C41.5937 70.5187 41.5937 69.4814 41.4024 68.4746L31.9614 18.7689C31.6662 17.2142 31.8295 15.6004 32.4289 14.1482C33.0283 12.696 34.0345 11.4763 35.31 10.6557C36.5855 9.83519 38.0681 9.45392 39.555 9.56406C41.0418 9.67419 42.4604 10.2703 43.6169 11.271L82.4635 44.8906C83.1491 45.4841 83.931 45.9388 84.7706 46.2323L131.842 62.6859Z"
        fill="white" />
    <circle cx="4.77273" cy="70" r="4.77273" fill="white" />
    <circle cx="69.9999" cy="135.227" r="4.77273" transform="rotate(90 69.9999 135.227)"
        fill="white" />
    <circle cx="69.9999" cy="4.77273" r="4.77273" transform="rotate(90 69.9999 4.77273)"
        fill="white" />
    <circle cx="102.614" cy="13.5115" r="4.77273" transform="rotate(120 102.614 13.5115)"
        fill="white" />
    <circle cx="13.5116" cy="102.614" r="4.77273" transform="rotate(150 13.5116 102.614)"
        fill="white" />
    <circle cx="126.488" cy="37.3864" r="4.77273" transform="rotate(150 126.488 37.3864)"
        fill="white" />
    <circle cx="13.5115" cy="37.3863" r="4.77273" transform="rotate(-150 13.5115 37.3863)"
        fill="white" />
    <circle cx="126.488" cy="102.614" r="4.77273" transform="rotate(-150 126.488 102.614)"
        fill="white" />
    <circle cx="102.614" cy="126.488" r="4.77273" transform="rotate(-120 102.614 126.488)"
        fill="white" />
</svg>
