<svg width="40" height="40" viewBox="0 0 40 40" fill="none" xmlns="http://www.w3.org/2000/svg">
    <defs>
        <linearGradient id="paint0_linear_44_273" x1="27.9565" y1="31" x2="8.38134" y2="27.1083"
            gradientUnits="userSpaceOnUse">
            <stop stop-color="#FF5C00" />
            <stop offset="1" stop-color="#FF7A00" />
        </linearGradient>
        <linearGradient id="paint1_linear_44_273" x1="26.7139" y1="29.7248" x2="11.0974" y2="24.996"
            gradientUnits="userSpaceOnUse">
            <stop stop-color="#FF5C00" />
            <stop offset="1" stop-color="#FF7A00" />
        </linearGradient>
        <linearGradient id="paint2_linear_44_273" x1="27.9891" y1="16.75" x2="23.0953" y2="15.7771"
            gradientUnits="userSpaceOnUse">
            <stop stop-color="#FF5C00" />
            <stop offset="1" stop-color="#FF7A00" />
        </linearGradient>
    </defs>
    <rect x="9" y="9" width="22" height="22" rx="2" stroke="url(#paint0_linear_44_273)"
        stroke-width="2" />
    <path fill-rule="evenodd" clip-rule="evenodd"
        d="M23.0042 26.0392C22.811 26.3834 22.3138 26.3786 22.1274 26.0306L17.4711 17.3376C17.2826 16.9857 16.7781 16.9857 16.5896 17.3376L10.0541 29.5388C9.87573 29.8719 10.117 30.2749 10.4949 30.2749H24.4009C24.4009 30.2749 24.4009 30.2749 24.4009 30.2749C24.4009 30.2749 24.4009 30.2749 24.4009 30.2749H29.6008C29.983 30.2749 30.2239 29.8635 30.0368 29.5302L25.9771 22.2955C25.786 21.955 25.296 21.955 25.105 22.2955L23.0042 26.0392Z"
        fill="url(#paint1_linear_44_273)" />
    <circle cx="26" cy="14" r="3" fill="url(#paint2_linear_44_273)" />
</svg>
