<svg width="248" height="248" viewBox="0 0 248 248" fill="none" xmlns="http://www.w3.org/2000/svg">
    <path
        d="M219.522 113.876C229.611 117.19 229.611 131.463 219.522 134.776L147.951 158.286C146.674 158.705 145.485 159.355 144.443 160.203L85.3768 208.239C83.6185 209.668 81.4615 210.52 79.2008 210.678C76.94 210.835 74.6858 210.29 72.7464 209.118C70.8069 207.945 69.277 206.203 68.3656 204.128C67.4543 202.053 67.206 199.747 67.6548 197.526L82.0098 126.506C82.3006 125.067 82.3006 123.585 82.0098 122.147L67.6548 51.1267C67.206 48.9054 67.4543 46.5996 68.3656 44.5247C69.277 42.4498 70.8069 40.707 72.7464 39.5346C74.6858 38.3622 76.94 37.8174 79.2008 37.9748C81.4615 38.1322 83.6185 38.984 85.3768 40.4137L144.443 88.4497C145.485 89.2976 146.674 89.9473 147.951 90.3667L219.522 113.876Z"
        fill="#FF8000" />
    <path
        d="M123.938 35.3258C126.699 35.3258 128.938 33.0872 128.938 30.3258C128.938 27.5644 126.699 25.3258 123.938 25.3258C121.176 25.3258 118.938 27.5644 118.938 30.3258C118.938 33.0872 121.176 35.3258 123.938 35.3258Z"
        fill="#FF8000" />
    <path
        d="M123.938 222.326C126.699 222.326 128.938 220.087 128.938 217.326C128.938 214.564 126.699 212.326 123.938 212.326C121.176 212.326 118.938 214.564 118.938 217.326C118.938 220.087 121.176 222.326 123.938 222.326Z"
        fill="#FF8000" />
    <path
        d="M168.187 47.1825C170.578 48.5632 173.636 47.7438 175.017 45.3523C176.398 42.9609 175.578 39.9029 173.187 38.5222C170.795 37.1415 167.738 37.9609 166.357 40.3523C164.976 42.7438 165.795 45.8018 168.187 47.1825Z"
        fill="#FF8000" />
    <path
        d="M200.581 79.5759C201.962 81.9673 205.02 82.7867 207.411 81.406C209.803 80.0253 210.622 76.9673 209.241 74.5759C207.861 72.1844 204.803 71.365 202.411 72.7457C200.02 74.1264 199.2 77.1844 200.581 79.5759Z"
        fill="#FF8000" />
    <path
        d="M38.6343 173.076C40.0151 175.467 43.073 176.287 45.4645 174.906C47.8559 173.525 48.6753 170.467 47.2946 168.076C45.9139 165.684 42.8559 164.865 40.4645 166.246C38.073 167.626 37.2536 170.684 38.6343 173.076Z"
        fill="#FF8000" />
    <path
        d="M146.838 38.3858C149.505 39.101 152.248 37.5183 152.963 34.8508C153.678 32.1833 152.095 29.441 149.428 28.7258C146.76 28.0106 144.018 29.5933 143.303 32.2608C142.588 34.9283 144.17 37.6706 146.838 38.3858Z"
        fill="#FF8000" />
    <path
        d="M98.4048 219.028C101.072 219.743 103.815 218.16 104.53 215.493C105.245 212.825 103.662 210.083 100.995 209.368C98.3273 208.653 95.585 210.235 94.8698 212.903C94.1546 215.57 95.7373 218.313 98.4048 219.028Z"
        fill="#FF8000" />
    <path
        d="M186.517 61.2477C188.469 63.2003 191.635 63.2003 193.588 61.2477C195.54 59.2951 195.54 56.1293 193.588 54.1766C191.635 52.224 188.469 52.224 186.517 54.1766C184.564 56.1293 184.564 59.2951 186.517 61.2477Z"
        fill="#FF8000" />
    <path
        d="M54.2878 193.477C56.2404 195.429 59.4062 195.429 61.3589 193.477C63.3115 191.524 63.3115 188.358 61.3589 186.406C59.4062 184.453 56.2404 184.453 54.2878 186.406C52.3352 188.358 52.3352 191.524 54.2878 193.477Z"
        fill="#FF8000" />
    <path
        d="M209.45 100.955C210.165 103.622 212.907 105.205 215.575 104.49C218.242 103.775 219.825 101.032 219.11 98.3648C218.395 95.6973 215.652 94.1146 212.985 94.8298C210.317 95.545 208.735 98.2873 209.45 100.955Z"
        fill="#FF8000" />
    <path
        d="M28.8078 149.388C29.523 152.055 32.2653 153.638 34.9328 152.923C37.6004 152.208 39.183 149.465 38.4678 146.798C37.7526 144.13 35.0104 142.548 32.3428 143.263C29.6753 143.978 28.0926 146.72 28.8078 149.388Z"
        fill="#FF8000" />
    <path
        d="M25.4378 123.826C25.4378 126.587 27.6764 128.826 30.4378 128.826C33.1993 128.826 35.4378 126.587 35.4378 123.826C35.4378 121.064 33.1993 118.826 30.4378 118.826C27.6764 118.826 25.4378 121.064 25.4378 123.826Z"
        fill="#FF8000" />
    <path
        d="M200.581 168.076C199.2 170.467 200.02 173.525 202.411 174.906C204.803 176.287 207.861 175.467 209.241 173.076C210.622 170.684 209.803 167.626 207.411 166.246C205.02 164.865 201.962 165.684 200.581 168.076Z"
        fill="#FF8000" />
    <path
        d="M38.6343 74.5759C37.2536 76.9673 38.073 80.0253 40.4645 81.406C42.8559 82.7867 45.9139 81.9673 47.2946 79.5759C48.6753 77.1844 47.8559 74.1264 45.4645 72.7457C43.073 71.365 40.0151 72.1844 38.6343 74.5759Z"
        fill="#FF8000" />
    <path
        d="M168.188 200.469C165.796 201.85 164.977 204.908 166.358 207.299C167.738 209.691 170.796 210.51 173.188 209.129C175.579 207.749 176.399 204.691 175.018 202.299C173.637 199.908 170.579 199.088 168.188 200.469Z"
        fill="#FF8000" />
    <path
        d="M209.378 146.727C208.663 149.394 210.245 152.137 212.913 152.852C215.58 153.567 218.323 151.984 219.038 149.317C219.753 146.649 218.17 143.907 215.503 143.192C212.835 142.477 210.093 144.059 209.378 146.727Z"
        fill="#FF8000" />
    <path
        d="M28.7359 98.2938C28.0206 100.961 29.6033 103.704 32.2708 104.419C34.9384 105.134 37.6806 103.551 38.3958 100.884C39.1111 98.2163 37.5284 95.474 34.8608 94.7588C32.1933 94.0436 29.4511 95.6263 28.7359 98.2938Z"
        fill="#FF8000" />
    <path
        d="M186.517 186.405C184.564 188.357 184.564 191.523 186.517 193.476C188.469 195.428 191.635 195.428 193.588 193.476C195.541 191.523 195.541 188.357 193.588 186.405C191.635 184.452 188.469 184.452 186.517 186.405Z"
        fill="#FF8000" />
    <path
        d="M54.2879 54.1756C52.3352 56.1283 52.3352 59.2941 54.2879 61.2467C56.2405 63.1993 59.4063 63.1993 61.3589 61.2467C63.3116 59.2941 63.3116 56.1283 61.3589 54.1756C59.4063 52.223 56.2405 52.223 54.2879 54.1756Z"
        fill="#FF8000" />
    <path
        d="M146.809 209.339C144.141 210.054 142.559 212.796 143.274 215.464C143.989 218.131 146.731 219.714 149.399 218.999C152.066 218.284 153.649 215.541 152.934 212.874C152.219 210.206 149.476 208.624 146.809 209.339Z"
        fill="#FF8000" />
    <path
        d="M98.3758 28.6968C95.7083 29.412 94.1256 32.1542 94.8408 34.8218C95.556 37.4893 98.2983 39.072 100.966 38.3568C103.633 37.6416 105.216 34.8993 104.501 32.2318C103.786 29.5642 101.043 27.9816 98.3758 28.6968Z"
        fill="#FF8000" />
    <path
        d="M139.404 6.34025C141.047 6.55651 142.554 5.40017 142.77 3.75749C142.987 2.11481 141.83 0.607841 140.188 0.391579C138.545 0.175316 137.038 1.33165 136.822 2.97433C136.605 4.61701 137.762 6.12399 139.404 6.34025Z"
        fill="#FF8000" />
    <path
        d="M107.687 247.261C109.329 247.478 110.836 246.321 111.052 244.679C111.269 243.036 110.112 241.529 108.47 241.313C106.827 241.096 105.32 242.253 105.104 243.895C104.888 245.538 106.044 247.045 107.687 247.261Z"
        fill="#FF8000" />
    <path
        d="M233.017 77.5248C233.664 79.05 235.426 79.7616 236.951 79.1142C238.476 78.4668 239.187 76.7056 238.54 75.1805C237.893 73.6553 236.131 72.9438 234.606 73.5911C233.081 74.2385 232.37 75.9997 233.017 77.5248Z"
        fill="#FF8000" />
    <path
        d="M9.3343 172.473C9.98168 173.998 11.7429 174.709 13.268 174.062C14.7931 173.414 15.5047 171.653 14.8573 170.128C14.2099 168.603 12.4488 167.891 10.9236 168.539C9.39848 169.186 8.68691 170.947 9.3343 172.473Z"
        fill="#FF8000" />
    <path
        d="M218.575 195.141C217.578 196.464 217.843 198.345 219.166 199.343C220.489 200.34 222.37 200.075 223.367 198.752C224.364 197.429 224.1 195.548 222.777 194.551C221.453 193.554 219.572 193.818 218.575 195.141Z"
        fill="#FF8000" />
    <path
        d="M24.5069 48.9001C23.5098 50.2234 23.7742 52.1044 25.0974 53.1015C26.4206 54.0986 28.3016 53.8342 29.2987 52.511C30.2958 51.1878 30.0315 49.3068 28.7083 48.3097C27.385 47.3125 25.504 47.5769 24.5069 48.9001Z"
        fill="#FF8000" />
    <path
        d="M195.252 29.1882C196.576 30.1853 198.457 29.921 199.454 28.5977C200.451 27.2745 200.186 25.3935 198.863 24.3964C197.54 23.3993 195.659 23.6636 194.662 24.9868C193.665 26.3101 193.929 28.1911 195.252 29.1882Z"
        fill="#FF8000" />
    <path
        d="M49.0113 223.257C50.3345 224.254 52.2155 223.989 53.2126 222.666C54.2098 221.343 53.9454 219.462 52.6222 218.465C51.299 217.468 49.4179 217.732 48.4208 219.055C47.4237 220.378 47.6881 222.26 49.0113 223.257Z"
        fill="#FF8000" />
    <path
        d="M241.554 138.267C241.352 139.912 242.522 141.409 244.166 141.611C245.811 141.813 247.308 140.643 247.51 138.999C247.712 137.354 246.542 135.857 244.898 135.655C243.253 135.453 241.756 136.623 241.554 138.267Z"
        fill="#FF8000" />
    <path
        d="M0.365608 108.653C0.163688 110.298 1.33313 111.794 2.97764 111.996C4.62214 112.198 6.11897 111.029 6.32088 109.384C6.5228 107.74 5.35336 106.243 3.70885 106.041C2.06435 105.839 0.567528 107.009 0.365608 108.653Z"
        fill="#FF8000" />
    <path
        d="M170.12 232.922C168.594 233.57 167.882 235.332 168.53 236.858C169.178 238.384 170.94 239.096 172.466 238.448C173.992 237.8 174.704 236.038 174.056 234.512C173.408 232.986 171.646 232.274 170.12 232.922Z"
        fill="#FF8000" />
    <path
        d="M75.1068 9.1188C73.5809 9.76663 72.869 11.5288 73.5168 13.0548C74.1646 14.5808 75.9269 15.2926 77.4528 14.6448C78.9788 13.997 79.6907 12.2348 79.0428 10.7088C78.395 9.18284 76.6328 8.47097 75.1068 9.1188Z"
        fill="#FF8000" />
    <path
        d="M168.262 14.0188C169.798 14.6401 171.547 13.8987 172.168 12.3628C172.789 10.8269 172.048 9.07811 170.512 8.45679C168.976 7.83547 167.227 8.57688 166.606 10.1128C165.985 11.6487 166.726 13.3975 168.262 14.0188Z"
        fill="#FF8000" />
    <path
        d="M77.1369 239.28C78.6728 239.901 80.4215 239.16 81.0429 237.624C81.6642 236.088 80.9228 234.339 79.3869 233.718C77.8509 233.096 76.1022 233.838 75.4809 235.374C74.8595 236.91 75.6009 238.658 77.1369 239.28Z"
        fill="#FF8000" />
    <path
        d="M241.284 107.334C241.514 108.975 243.032 110.118 244.672 109.888C246.313 109.657 247.456 108.14 247.226 106.499C246.995 104.859 245.478 103.715 243.837 103.946C242.196 104.177 241.053 105.694 241.284 107.334Z"
        fill="#FF8000" />
    <path
        d="M0.648778 141.153C0.879367 142.794 2.39637 143.937 4.0371 143.707C5.67783 143.476 6.82098 141.959 6.59039 140.318C6.3598 138.678 4.84279 137.534 3.20206 137.765C1.56133 137.996 0.418188 139.513 0.648778 141.153Z"
        fill="#FF8000" />
    <path
        d="M196.893 217.206C195.588 218.226 195.356 220.111 196.376 221.417C197.396 222.722 199.282 222.954 200.587 221.934C201.893 220.914 202.124 219.028 201.104 217.723C200.084 216.417 198.199 216.186 196.893 217.206Z"
        fill="#FF8000" />
    <path
        d="M47.2877 25.719C45.982 26.7391 45.7505 28.6244 46.7706 29.93C47.7907 31.2357 49.676 31.4671 50.9816 30.4471C52.2872 29.427 52.5187 27.5417 51.4987 26.2361C50.4786 24.9304 48.5933 24.699 47.2877 25.719Z"
        fill="#FF8000" />
    <path
        d="M217.317 50.8701C218.337 52.1758 220.222 52.4072 221.528 51.3872C222.833 50.3671 223.065 48.4818 222.045 47.1762C221.025 45.8705 219.139 45.6391 217.834 46.6591C216.528 47.6792 216.297 49.5645 217.317 50.8701Z"
        fill="#FF8000" />
    <path
        d="M25.83 200.476C26.8501 201.782 28.7354 202.013 30.041 200.993C31.3466 199.973 31.5781 198.088 30.5581 196.782C29.538 195.476 27.6527 195.245 26.3471 196.265C25.0414 197.285 24.8099 199.17 25.83 200.476Z"
        fill="#FF8000" />
    <path
        d="M233.745 168.151C233.124 169.687 233.865 171.435 235.401 172.057C236.937 172.678 238.686 171.937 239.307 170.401C239.928 168.865 239.187 167.116 237.651 166.495C236.115 165.873 234.366 166.615 233.745 168.151Z"
        fill="#FF8000" />
    <path
        d="M8.48384 77.0258C7.86252 78.5617 8.60393 80.3104 10.1398 80.9318C11.6757 81.5531 13.4245 80.8117 14.0458 79.2758C14.6672 77.7398 13.9257 75.9911 12.3898 75.3698C10.8539 74.7484 9.10516 75.4898 8.48384 77.0258Z"
        fill="#FF8000" />
    <path
        d="M140.429 241.173C138.789 241.403 137.645 242.92 137.876 244.561C138.107 246.202 139.624 247.345 141.264 247.114C142.905 246.884 144.048 245.367 143.818 243.726C143.587 242.085 142.07 240.942 140.429 241.173Z"
        fill="#FF8000" />
    <path
        d="M106.61 0.537679C104.97 0.768268 103.826 2.28527 104.057 3.926C104.288 5.56673 105.805 6.70988 107.445 6.47929C109.086 6.2487 110.229 4.73169 109.999 3.09096C109.768 1.45023 108.251 0.307089 106.61 0.537679Z"
        fill="#FF8000" />
</svg>
