<svg width="40" height="40" viewBox="0 0 40 40" fill="none" xmlns="http://www.w3.org/2000/svg">
    <path fill-rule="evenodd" clip-rule="evenodd"
        d="M18.2856 9C18.2856 8.44772 18.7334 8 19.2856 8H20.7142C21.2665 8 21.7142 8.44771 21.7142 9V10.0711C21.7142 10.5524 22.059 10.9597 22.5222 11.0906C23.2242 11.289 23.8924 11.5681 24.516 11.9173C24.9359 12.1524 25.4676 12.1081 25.8079 11.7678L26.566 11.0097C26.9565 10.6192 27.5897 10.6192 27.9802 11.0097L28.9904 12.0198C29.3809 12.4104 29.3809 13.0435 28.9904 13.434L28.2322 14.1922C27.892 14.5325 27.8477 15.0642 28.0827 15.484C28.4319 16.1076 28.711 16.7758 28.9093 17.4778C29.0402 17.941 29.4475 18.2858 29.9288 18.2858H31C31.5523 18.2858 32 18.7335 32 19.2858V20.7143C32 21.2666 31.5523 21.7143 31 21.7143L29.9288 21.7143C29.4475 21.7143 29.0402 22.0591 28.9093 22.5223C28.7109 23.2243 28.4319 23.8924 28.0827 24.516C27.8476 24.9359 27.8919 25.4676 28.2322 25.8079L28.9903 26.566C29.3808 26.9565 29.3808 27.5897 28.9903 27.9802L27.9801 28.9904C27.5896 29.3809 26.9565 29.3809 26.5659 28.9904L25.8078 28.2322C25.4675 27.892 24.9358 27.8477 24.5159 28.0828C23.8924 28.4319 23.2242 28.711 22.5222 28.9093C22.059 29.0402 21.7142 29.4475 21.7142 29.9288V31C21.7142 31.5523 21.2665 32 20.7142 32H19.2856C18.7334 32 18.2856 31.5523 18.2856 31V29.9288C18.2856 29.4475 17.9408 29.0402 17.4777 28.9093C16.7757 28.711 16.1076 28.4319 15.484 28.0828C15.0641 27.8477 14.5324 27.892 14.1922 28.2323L13.434 28.9904C13.0435 29.3809 12.4104 29.3809 12.0198 28.9904L11.0097 27.9802C10.6192 27.5897 10.6192 26.9565 11.0097 26.566L11.7678 25.8079C12.108 25.4677 12.1523 24.936 11.9172 24.5161C11.568 23.8925 11.2889 23.2243 11.0906 22.5223C10.9597 22.0591 10.5524 21.7143 10.0711 21.7143L9 21.7143C8.44771 21.7143 8 21.2666 8 20.7143L8 19.2858C8 18.7335 8.44772 18.2858 9 18.2858H10.0711C10.5524 18.2858 10.9597 17.941 11.0906 17.4778C11.2889 16.7757 11.568 16.1076 11.9172 15.484C12.1523 15.0641 12.108 14.5324 11.7677 14.1921L11.0096 13.434C10.6191 13.0435 10.6191 12.4103 11.0096 12.0198L12.0198 11.0096C12.4103 10.6191 13.0434 10.6191 13.434 11.0096L14.1921 11.7677C14.5323 12.108 15.064 12.1523 15.4839 11.9172C16.1075 11.5681 16.7756 11.289 17.4777 11.0906C17.9408 10.9598 18.2856 10.5524 18.2856 10.0711V9ZM19.9999 25.1429C22.8402 25.1429 25.1428 22.8403 25.1428 20C25.1428 17.1597 22.8402 14.8571 19.9999 14.8571C17.1596 14.8571 14.857 17.1597 14.857 20C14.857 22.8403 17.1596 25.1429 19.9999 25.1429Z"
        fill="url(#paint0_linear_57_690)" />
    <defs>
        <linearGradient id="paint0_linear_57_690" x1="27.9565" y1="31" x2="8.38134" y2="27.1083"
            gradientUnits="userSpaceOnUse">
            <stop stop-color="#FF5C00" />
            <stop offset="1" stop-color="#FF7A00" />
        </linearGradient>
    </defs>
</svg>
