<svg width="40" height="40" viewBox="0 0 40 40" fill="none" xmlns="http://www.w3.org/2000/svg">
    <path fill-rule="evenodd" clip-rule="evenodd"
        d="M28 13H12C11.9014 13 11.8044 13.0071 11.7096 13.0209L20 17.8417L28.2904 13.0209C28.1956 13.0071 28.0986 13 28 13ZM29.7983 14.1236L20.4804 19.5419C20.2185 19.7203 19.8672 19.744 19.5742 19.5736L10.2017 14.1236C10.0725 14.3883 10 14.6857 10 15V24.1429C10 25.2474 10.8954 26.1429 12 26.1429H28C29.1046 26.1429 30 25.2474 30 24.1429V15C30 14.6857 29.9275 14.3883 29.7983 14.1236ZM12 11C9.79086 11 8 12.7909 8 15V24.1429C8 26.352 9.79086 28.1429 12 28.1429H28C30.2091 28.1429 32 26.352 32 24.1429V15C32 12.7909 30.2091 11 28 11H12Z"
        fill="url(#paint0_linear_57_481)" />
    <defs>
        <linearGradient id="paint0_linear_57_481" x1="27.9565" y1="27.4286" x2="9.07069"
            y2="22.1721" gradientUnits="userSpaceOnUse">
            <stop stop-color="#FF5C00" />
            <stop offset="1" stop-color="#FF7A00" />
        </linearGradient>
    </defs>
</svg>
