<svg width="40" height="40" viewBox="0 0 40 40" fill="none" xmlns="http://www.w3.org/2000/svg">
    <path fill-rule="evenodd" clip-rule="evenodd"
        d="M25.4286 18.2857C28.2689 18.2857 30.5714 15.9832 30.5714 13.1429C30.5714 10.3025 28.2689 8 25.4286 8C22.5883 8 20.2857 10.3025 20.2857 13.1429C20.2857 14.0636 20.5277 14.9277 20.9514 15.6753L15.478 20.2397C14.9131 19.8446 14.2255 19.6129 13.4839 19.6129C11.5598 19.6129 10 21.1726 10 23.0967C10 25.0208 11.5598 26.5806 13.4839 26.5806C14.34 26.5806 15.124 26.2718 15.7305 25.7595L22.3363 29.2901C22.3151 29.4161 22.3041 29.5455 22.3041 29.6774C22.3041 30.9601 23.344 32 24.6267 32C25.9094 32 26.9493 30.9601 26.9493 29.6774C26.9493 28.3947 25.9094 27.3548 24.6267 27.3548C24.037 27.3548 23.4986 27.5746 23.089 27.9367L16.6708 24.5064C16.8617 24.0754 16.9677 23.5984 16.9677 23.0967C16.9677 22.5073 16.8214 21.9521 16.563 21.4654L21.9742 16.953C22.8871 17.7811 24.0989 18.2857 25.4286 18.2857Z"
        fill="url(#paint0_linear_57_496)" />
    <defs>
        <linearGradient id="paint0_linear_57_496" x1="27.1056" y1="31" x2="10.1559" y2="28.1117"
            gradientUnits="userSpaceOnUse">
            <stop stop-color="#FF5C00" />
            <stop offset="1" stop-color="#FF7A00" />
        </linearGradient>
    </defs>
</svg>
