<svg width="40" height="40" viewBox="0 0 40 40" fill="none" xmlns="http://www.w3.org/2000/svg">
    <path fill-rule="evenodd" clip-rule="evenodd"
        d="M14 8C12.3431 8 11 9.34315 11 11V29C11 30.6569 12.3431 32 14 32H25.1429C26.7997 32 28.1429 30.6569 28.1429 29V11C28.1429 9.34315 26.7997 8 25.1429 8H14ZM14 12C13.4477 12 13 12.4477 13 13C13 13.5523 13.4477 14 14 14H25C25.5523 14 26 13.5523 26 13C26 12.4477 25.5523 12 25 12H14ZM13 20C13 19.4477 13.4477 19 14 19H25C25.5523 19 26 19.4477 26 20C26 20.5523 25.5523 21 25 21H14C13.4477 21 13 20.5523 13 20ZM14 26C13.4477 26 13 26.4477 13 27C13 27.5523 13.4477 28 14 28H25C25.5523 28 26 27.5523 26 27C26 26.4477 25.5523 26 25 26H14Z"
        fill="url(#paint0_linear_57_408)" />
    <defs>
        <linearGradient id="paint0_linear_57_408" x1="25.2547" y1="31" x2="11.0071" y2="28.9768"
            gradientUnits="userSpaceOnUse">
            <stop stop-color="#FF5C00" />
            <stop offset="1" stop-color="#FF7A00" />
        </linearGradient>
    </defs>
</svg>
